<?xml version="1.0" encoding="UTF-8"?>
<svg viewBox="0 0 437.5 437.5" xmlns="http://www.w3.org/2000/svg" xmlns:xlink="http://www.w3.org/1999/xlink">
 <path d="m243.41 115.05-54.301 18.107v13.992l36.068 2.8806c7.5307 11.111 16.251 35.802 27.745 73.662-13.873 28.806-30.123 49.382-46.374 60.904l-17.043-21.81c-15.854 4.115-25.367 16.049-25.367 29.218 0 14.403 12.683 26.749 28.141 26.749 22.592 0 43.599-24.691 69.363-73.662 11.098 52.674 22.989 75.719 53.508 75.719 12.287 0 29.33-4.1152 52.319-11.522v-16.049c-7.9272 2.0576-15.062 2.8807-21.8 2.8807-26.556 0-32.105-27.16-48.752-86.83 13.872-30.041 28.934-48.559 43.996-55.555l15.458 21.81c16.251-4.9382 25.367-16.872 25.367-31.275 0-15.226-10.305-26.337-24.97-26.337-22.592 0-44.789 23.868-68.966 70.781-12.287-50.205-19.422-73.662-41.618-73.662h-2.7744z" fill="#004d00"/>
 <path d="m153.42 14.458c-15.558 82.573-45.814 264.18-52.746 282.73-8.251-39.658-36.396-117.25-40.785-127.77-4.4955 2.2021-49.539 20.793-53.966 24.313 1.2856 4.4336 5.2387 21.41 6.4972 25.13l16.416-7 72.245 220 76.627-373.86h240.45v-44.948l-264.73 1.4068z" fill="#0f0" stroke="#000" stroke-linejoin="round" stroke-width="6.25"/>
</svg>
